<?xml version="1.0" encoding="UTF-8"?>
<svg xmlns="http://www.w3.org/2000/svg" version="1.1" viewBox="0 0 219 60">
  <defs>
    <style>
      .cls-1 {
        fill: #664ec9;
      }
    </style>
  </defs>
  <!-- Generator: Adobe Illustrator 28.7.4, SVG Export Plug-In . SVG Version: 1.2.0 Build 166)  -->
  <g>
    <g id="Layer_1">
      <g>
        <path class="cls-1" d="M82.9,48c-10.6,0-18.9-7.1-18.9-18.9s8.3-18.6,18.9-18.6,18.9,7,18.9,18.6-8.3,18.9-18.9,18.9ZM82.9,42.5c6.8,0,12.2-5,12.2-13.4s-5.4-13.1-12.2-13.1-12.1,4.9-12.1,13.1,5.4,13.4,12.1,13.4Z"/>
        <path class="cls-1" d="M107.2,47.5v-27.4h6.2l-.2,7.3h0c1.5-4.9,5-7.8,11.4-7.8s11.2,3.9,11.2,10.7v17.1h-6.2v-15.7c0-4.3-2.4-6.8-7.4-6.8s-8.9,3.3-8.9,9.2v13.2h-6.2Z"/>
        <path class="cls-1" d="M141.9,16.9v-6.1h6.4v6.1h-6.4ZM141.9,47.5v-27.4h6.2v27.4h-6.2Z"/>
        <path class="cls-1" d="M168.1,47.9c-8.7,0-14.3-5.4-14.3-14.1s5.6-14.2,14.3-14.2,14.3,5.4,14.3,14.2-5.6,14.1-14.3,14.1ZM168.1,42.8c5,0,8.1-3.4,8.1-9s-3.1-9.1-8.1-9.1-8.1,3.5-8.1,9.1,3,9,8.1,9Z"/>
        <path class="cls-1" d="M187.7,47.5v-27.4h6.2l-.2,7.3h0c1.5-4.9,5-7.8,11.4-7.8s11.2,3.9,11.2,10.7v17.1h-6.2v-15.7c0-4.3-2.4-6.8-7.4-6.8s-8.9,3.3-8.9,9.2v13.2h-6.2Z"/>
        <circle class="cls-1" cx="7.7" cy="30" r="5"/>
        <path class="cls-1" d="M9.6,48.9c9.2-1.6,15-6.9,16.6-16.6.5-3.4,0-6.8-1.4-10-1.4-3.2-3.4-5.8-6.2-7.8-2.7-2-5.7-3.1-9-3.5,5.1-1.7,13.2-.4,18.7,6.4,5.7,7.1,5.7,17.6.2,24.8-5.5,7-13.8,8.3-18.9,6.7h0Z"/>
        <path class="cls-1" d="M5.6,16.7c2.1-2,9.7-.6,13.4,2.4,5.6,4.7,6.6,12.7,2.3,18.6-4.1,5.6-11.5,6.7-15.8,4.9,6.9-1.8,11.1-5.9,11.1-13,0-7.1-4.2-11.1-11-12.9h0Z"/>
        <path class="cls-1" d="M22.5,3.3c-2.9,0-5.7.4-8.4,1.3,14.8,3.7,23.5,12.1,23.5,25.4s-8.7,21.7-23.5,25.4c2.7.8,5.5,1.3,8.4,1.3,16,0,30.5-10.3,30.5-26.7S38.6,3.3,22.5,3.3Z"/>
        <path class="cls-1" d="M82.9,48c-10.6,0-18.9-7.1-18.9-18.9s8.3-18.6,18.9-18.6,18.9,7,18.9,18.6-8.3,18.9-18.9,18.9ZM82.9,42.5c6.8,0,12.2-5,12.2-13.4s-5.4-13.1-12.2-13.1-12.1,4.9-12.1,13.1,5.4,13.4,12.1,13.4Z"/>
        <path class="cls-1" d="M107.2,47.5v-27.4h6.2l-.2,7.3h0c1.5-4.9,5-7.8,11.4-7.8s11.2,3.9,11.2,10.7v17.1h-6.2v-15.7c0-4.3-2.4-6.8-7.4-6.8s-8.9,3.3-8.9,9.2v13.2h-6.2Z"/>
        <path class="cls-1" d="M141.9,16.9v-6.1h6.4v6.1h-6.4ZM141.9,47.5v-27.4h6.2v27.4h-6.2Z"/>
        <path class="cls-1" d="M168.1,47.9c-8.7,0-14.3-5.4-14.3-14.1s5.6-14.2,14.3-14.2,14.3,5.4,14.3,14.2-5.6,14.1-14.3,14.1ZM168.1,42.8c5,0,8.1-3.4,8.1-9s-3.1-9.1-8.1-9.1-8.1,3.5-8.1,9.1,3,9,8.1,9Z"/>
        <path class="cls-1" d="M187.7,47.5v-27.4h6.2l-.2,7.3h0c1.5-4.9,5-7.8,11.4-7.8s11.2,3.9,11.2,10.7v17.1h-6.2v-15.7c0-4.3-2.4-6.8-7.4-6.8s-8.9,3.3-8.9,9.2v13.2h-6.2Z"/>
        <circle class="cls-1" cx="7.7" cy="30" r="5"/>
        <path class="cls-1" d="M9.6,48.9c9.2-1.6,15-6.9,16.6-16.6.5-3.4,0-6.8-1.4-10-1.4-3.2-3.4-5.8-6.2-7.8-2.7-2-5.7-3.1-9-3.5,5.1-1.7,13.2-.4,18.7,6.4,5.7,7.1,5.7,17.6.2,24.8-5.5,7-13.8,8.3-18.9,6.7h0Z"/>
        <path class="cls-1" d="M5.6,16.7c2.1-2,9.7-.6,13.4,2.4,5.6,4.7,6.6,12.7,2.3,18.6-4.1,5.6-11.5,6.7-15.8,4.9,6.9-1.8,11.1-5.9,11.1-13,0-7.1-4.2-11.1-11-12.9h0Z"/>
        <path class="cls-1" d="M22.5,3.3c-2.9,0-5.7.4-8.4,1.3,14.8,3.7,23.5,12.1,23.5,25.4s-8.7,21.7-23.5,25.4c2.7.8,5.5,1.3,8.4,1.3,16,0,30.5-10.3,30.5-26.7S38.6,3.3,22.5,3.3Z"/>
      </g>
    </g>
  </g>
</svg>